<?xml version="1.0" encoding="utf-8"?>
<!-- Generator: Adobe Illustrator 24.0.1, SVG Export Plug-In . SVG Version: 6.00 Build 0)  -->
<svg version="1.1" id="Layer_1" xmlns="http://www.w3.org/2000/svg" xmlns:xlink="http://www.w3.org/1999/xlink" x="0px" y="0px"
	 viewBox="0 0 32 32" style="enable-background:new 0 0 32 32;" xml:space="preserve">
<style type="text/css">
	
</style>
<g id="frame" fill="#69d">
	<path class="st0" d="M4.005 0A4.014 4.014 0 000 4v24c0 2.2 1.802 4 4.005 4h24.032c2.203 0 4.005-1.8 4.005-4V4c0-2.2-1.802-4-4.005-4z"/>
	
</g>
<g id="mark1" fill="#fff">
	<path fill="#fff" class="st0" d="M6.792 15.157l12.865-7.479c.275-.16.289-.653-.02-.83-.308-.178-.893-.514-1.111-.643a1.004 1.004 0 00-.991.012c-.154.09-10.433 6.06-10.776 6.256-.412.236-.92.24-1.33 0L0 9.287v2.708c1.321.778 4.607 2.71 5.403 3.165.475.27.93.264 1.389-.003"/>
	<path class="st0" d="M6.792 20.277l12.865-7.479c.275-.16.289-.653-.02-.83-.308-.178-.893-.514-1.111-.643a1.004 1.004 0 00-.991.012c-.154.09-10.433 6.06-10.776 6.256-.412.236-.92.24-1.33 0L0 14.407v2.708c1.321.778 4.607 2.71 5.403 3.165.475.27.93.264 1.389-.003"/>
	<path class="st0" d="M6.792 25.717l12.865-7.479c.275-.16.289-.653-.02-.83-.308-.178-.893-.514-1.111-.643a1.004 1.004 0 00-.991.012c-.154.09-10.433 6.06-10.776 6.256-.412.236-.92.24-1.33 0L0 19.847v2.708c1.321.778 4.607 2.71 5.403 3.165.475.27.93.264 1.389-.003"/>
</g>

</svg>